<?xml version="1.0" encoding="utf-8"?>
<!-- Generator: Adobe Illustrator 23.0.5, SVG Export Plug-In . SVG Version: 6.00 Build 0)  -->
<svg version="1.1" xmlns="http://www.w3.org/2000/svg" xmlns:xlink="http://www.w3.org/1999/xlink" x="0px" y="0px"
	 viewBox="0 0 1913 506" style="enable-background:new 0 0 1913 506;" xml:space="preserve">
<style type="text/css">
	.st0{fill:#FFFFFF;}
</style>
<g id="Capa_1">
</g>
<g id="Capa_2">
	<g>
		<path d="M1841.1,419.93L28.61,494.77c-8.82,0.36-12.55-11.1-5.2-15.99L725.02,11.22H1814.9c43.41,0,78.6,35.19,78.6,78.6v277.71
			C1893.5,396.47,1870.04,419.93,1841.1,419.93z"/>
		<g>
			<g>
				<path class="st0" d="M834.71,148.67c1.71,0,2.57,0.49,2.57,1.47c0,0.37-0.06,0.8-0.18,1.28L832.87,176
					c-0.12,1.1-0.43,1.83-0.92,2.2c-0.49,0.37-1.35,0.55-2.57,0.55h-9.9c-1.22,0-1.99-0.18-2.29-0.55c-0.31-0.37-0.34-1.1-0.09-2.2
					l2.93-12.65h-39.8l-6.97,38.15h35.4c1.22,0,1.99,0.18,2.29,0.55c0.3,0.37,0.33,1.1,0.09,2.2l-1.47,8.8
					c-0.25,1.83-1.41,2.75-3.48,2.75h-35.21l-7.7,42.91h17.06c1.22-0.12,1.99,0,2.29,0.37c0.3,0.37,0.33,1.1,0.09,2.2l-1.47,9.17
					c-0.25,1.1-0.58,1.83-1.01,2.2c-0.43,0.37-1.26,0.55-2.47,0.55h-46.95c-1.71,0-2.57-0.49-2.57-1.47c0-0.37,0.06-0.79,0.18-1.28
					l1.47-9.17c0.24-1.1,0.58-1.83,1.01-2.2c0.43-0.37,1.25-0.49,2.47-0.37h9.35l16.69-95.18h-9.54c-1.22,0.12-1.99,0-2.29-0.37
					c-0.31-0.37-0.34-1.1-0.09-2.2l1.65-9.54c0.24-1.83,1.4-2.75,3.48-2.75H834.71z"/>
			</g>
			<g>
				<path class="st0" d="M844.06,182.42h25.49c1.22,0,1.99,0.18,2.29,0.55c0.3,0.37,0.33,1.1,0.09,2.2l-12.47,69.87
					c-0.12,0.86-0.18,1.59-0.18,2.2c0,2.32,1.04,3.48,3.12,3.48c1.47,0,3.21-0.43,5.23-1.28c2.02-0.85,3.39-0.49,4.13,1.1l1.47,2.93
					c0.85,1.59,0.55,3-0.92,4.22c-6.6,5.26-13.27,7.89-19.99,7.89c-9.42,0-14.12-4.22-14.12-12.65c0-1.47,0.12-3.05,0.36-4.77
					l10.45-60.89h-7.89c-1.22,0.12-1.99,0-2.29-0.37c-0.31-0.37-0.34-1.1-0.09-2.2l1.84-9.54
					C840.82,183.34,841.98,182.42,844.06,182.42z M876.34,153.26c0,3.79-1.37,7-4.13,9.63c-2.75,2.63-6.08,3.94-10,3.94
					c-3.91,0-6.97-1.16-9.17-3.48c-2.2-2.32-3.3-5.35-3.3-9.08c0-3.73,1.43-6.94,4.31-9.63c2.87-2.69,6.2-4.03,10-4.03
					c3.79,0,6.79,1.16,8.99,3.48C875.23,146.41,876.34,149.47,876.34,153.26z"/>
			</g>
			<g>
				<path class="st0" d="M931.72,136.39c1.71,0,2.57,0.49,2.57,1.47c0,0.37-0.06,0.8-0.18,1.28l-20.72,115.91
					c-0.12,0.73-0.18,1.47-0.18,2.2c0,2.32,1.1,3.48,3.3,3.48c1.47,0,3.21-0.43,5.23-1.28c2.02-0.85,3.39-0.49,4.13,1.1l1.47,2.93
					c0.85,1.59,0.55,3-0.92,4.22c-6.6,5.26-13.27,7.89-19.99,7.89c-9.42,0-14.12-4.22-14.12-12.65c0-1.47,0.12-3.05,0.37-4.77
					l18.71-107.1h-7.89c-1.22,0.12-1.99,0-2.29-0.37c-0.31-0.37-0.34-1.1-0.09-2.2l1.65-9.35c0.12-1.1,0.43-1.83,0.92-2.2
					c0.49-0.37,1.34-0.55,2.57-0.55H931.72z"/>
			</g>
			<g>
				<path class="st0" d="M946.39,273.2c-1.71,0-2.57-0.49-2.57-1.47c0-0.37,0.06-0.79,0.18-1.28l12.84-73.36h-7.89
					c-1.22,0.12-1.99,0-2.29-0.37c-0.31-0.37-0.4-1.1-0.27-2.2l1.65-9.35c0.24-1.1,0.55-1.83,0.92-2.2
					c0.37-0.37,1.16-0.55,2.38-0.55h22.92c1.22,0,1.99,0.18,2.29,0.55c0.3,0.37,0.4,1.1,0.28,2.2l-1.65,11.19
					c7.95-10.64,18.22-15.95,30.81-15.95c6.24,0,11.19,1.47,14.85,4.4c3.67,2.93,6.05,6.85,7.15,11.74
					c8.56-10.76,18.77-16.14,30.63-16.14c7.7,0,13.54,1.96,17.51,5.87c3.97,3.91,5.96,9.54,5.96,16.87c0,3.06-0.55,7.34-1.65,12.84
					l-8.07,39.06c-0.12,0.86-0.18,1.59-0.18,2.2c0,2.32,0.98,3.48,2.93,3.48c1.47,0,3.21-0.43,5.23-1.28
					c2.02-0.85,3.39-0.49,4.13,1.1l1.47,2.93c0.37,0.61,0.55,1.28,0.55,2.02s-0.49,1.47-1.47,2.2c-6.6,5.26-13.27,7.89-19.99,7.89
					c-9.54,0-14.31-4.03-14.31-12.1c0-1.59,0.18-3.36,0.55-5.32l7.52-37.05c0.98-5.26,1.47-9.23,1.47-11.92
					c0-7.46-3.79-11.19-11.37-11.19c-5.26,0-10,1.68-14.22,5.04c-4.22,3.36-6.69,7.18-7.43,11.46l-9.72,55.94
					c-0.25,1.83-1.41,2.75-3.49,2.75h-14.67c-1.22,0-1.99-0.18-2.29-0.55c-0.31-0.37-0.34-1.1-0.09-2.2l8.8-50.25
					c0.85-4.89,1.28-8.56,1.28-11c0-7.46-3.73-11.19-11.19-11.19c-5.5,0-10.36,1.96-14.58,5.87c-4.22,3.91-6.76,8.32-7.61,13.2
					l-9.54,53.37c-0.12,1.1-0.43,1.83-0.92,2.2c-0.49,0.37-1.35,0.55-2.57,0.55H946.39z"/>
			</g>
			<g>
				<path class="st0" d="M1111.07,182.42h25.49c1.22,0,1.99,0.18,2.29,0.55c0.3,0.37,0.34,1.1,0.09,2.2l-12.47,69.87
					c-0.12,0.86-0.18,1.59-0.18,2.2c0,2.32,1.04,3.48,3.12,3.48c1.47,0,3.21-0.43,5.23-1.28c2.02-0.85,3.39-0.49,4.12,1.1l1.47,2.93
					c0.85,1.59,0.55,3-0.92,4.22c-6.6,5.26-13.27,7.89-19.99,7.89c-9.42,0-14.12-4.22-14.12-12.65c0-1.47,0.12-3.05,0.37-4.77
					l10.45-60.89h-7.89c-1.22,0.12-1.99,0-2.29-0.37c-0.31-0.37-0.34-1.1-0.09-2.2l1.83-9.54
					C1107.83,183.34,1108.99,182.42,1111.07,182.42z M1143.35,153.26c0,3.79-1.37,7-4.12,9.63c-2.75,2.63-6.08,3.94-10,3.94
					c-3.91,0-6.97-1.16-9.17-3.48c-2.2-2.32-3.3-5.35-3.3-9.08c0-3.73,1.44-6.94,4.31-9.63c2.87-2.69,6.2-4.03,10-4.03
					c3.79,0,6.79,1.16,8.99,3.48C1142.25,146.41,1143.35,149.47,1143.35,153.26z"/>
			</g>
			<g>
				<path class="st0" d="M1242.57,216.71c0,17.73-4.74,31.94-14.21,42.64c-9.48,10.7-22.59,16.05-39.34,16.05
					c-11,0-19.53-3.12-25.58-9.35c-6.05-6.24-9.08-15.28-9.08-27.14c0-17.12,4.52-31.15,13.57-42.09
					c9.05-10.94,21.76-16.41,38.15-16.41c17.36,0,28.67,6.91,33.93,20.72C1241.71,205.65,1242.57,210.85,1242.57,216.71z
					 M1220.93,217.08c0-13.82-5.99-20.72-17.97-20.72c-5.38,0-10,1.41-13.85,4.22c-3.85,2.81-6.69,6.54-8.53,11.19
					c-3.3,8.32-4.95,17.36-4.95,27.14c0,14.18,5.5,21.27,16.5,21.27c5.38,0,10.05-1.47,14.03-4.4c3.97-2.93,6.94-6.79,8.89-11.55
					C1218.97,235.3,1220.93,226.25,1220.93,217.08z"/>
			</g>
			<g>
				<path class="st0" d="M1259.25,273.2c-1.71,0-2.57-0.49-2.57-1.47c0-0.37,0.06-0.79,0.18-1.28l12.84-73.36h-7.89
					c-1.22,0.12-1.99,0-2.29-0.37c-0.31-0.37-0.34-1.1-0.09-2.2l1.47-9.35c0.24-1.1,0.58-1.83,1.01-2.2
					c0.43-0.37,1.25-0.55,2.48-0.55h23.11c1.22,0,1.99,0.18,2.29,0.55c0.3,0.37,0.33,1.1,0.09,2.2l-1.65,10.64
					c8.68-10.27,19.56-15.4,32.64-15.4c7.7,0,13.72,1.99,18.06,5.96c4.34,3.97,6.51,9.63,6.51,16.96c0,3.3-0.49,7.15-1.47,11.55
					l-8.44,40.16c-0.12,0.86-0.18,1.59-0.18,2.2c0,2.32,0.98,3.48,2.94,3.48c1.47,0,3.21-0.43,5.23-1.28
					c2.02-0.85,3.39-0.49,4.13,1.1l1.47,2.93c0.37,0.61,0.55,1.28,0.55,2.02s-0.49,1.47-1.47,2.2c-6.6,5.26-13.27,7.89-19.99,7.89
					c-9.54,0-14.31-4.03-14.31-12.1c0-1.59,0.18-3.36,0.55-5.32l7.89-38.15c0.85-4.52,1.28-8.37,1.28-11.55
					c0-7.09-4.1-10.64-12.29-10.64c-6.12,0-11.53,1.71-16.23,5.13c-4.71,3.42-7.49,7.64-8.34,12.65l-9.54,54.83
					c-0.12,1.1-0.43,1.83-0.92,2.2c-0.49,0.37-1.35,0.55-2.57,0.55H1259.25z"/>
			</g>
			<g>
				<path class="st0" d="M1441.91,182.42h12.84c1.22,0,1.99,0.18,2.29,0.55c0.3,0.37,0.33,1.1,0.09,2.2l-12.47,70.24
					c-0.12,0.61-0.18,1.22-0.18,1.83c0,2.2,1.29,3.3,3.85,3.3c1.34,0,2.96-0.43,4.86-1.28c1.89-0.85,3.27-0.49,4.13,1.1l1.65,2.93
					c0.37,0.61,0.55,1.28,0.55,2.02c0,0.73-0.49,1.47-1.47,2.2c-7.21,5.26-13.94,7.89-20.17,7.89c-9.53,0-14.3-4.58-14.3-13.75
					c0-0.37,0-0.73,0-1.1c-7.09,9.9-16.81,14.85-29.16,14.85c-9.66,0-17.12-2.78-22.38-8.34c-5.26-5.56-7.89-14.03-7.89-25.4
					c0-15.16,3.67-28.85,11-41.08c3.67-5.99,8.71-10.85,15.13-14.58c6.42-3.73,13.79-5.59,22.1-5.59c10.64,0,18.89,3.73,24.76,11.19
					l1.28-6.42c0.12-1.1,0.43-1.83,0.92-2.2C1439.83,182.6,1440.69,182.42,1441.91,182.42z M1433.11,205.71
					c-4.52-6.36-10.82-9.6-18.89-9.72c-5.5,0-10.27,1.38-14.3,4.13c-4.04,2.75-7.09,6.39-9.17,10.91
					c-3.92,8.56-5.87,17.09-5.87,25.58c0,8.5,1.38,14.46,4.13,17.88c2.75,3.42,7.06,5.13,12.93,5.13c5.87,0,11.25-1.77,16.14-5.32
					c4.89-3.54,7.82-8.37,8.8-14.49L1433.11,205.71z"/>
			</g>
			<g>
				<path class="st0" d="M1477.49,273.2c-1.71,0-2.57-0.49-2.57-1.47c0-0.37,0.06-0.79,0.18-1.28l12.65-73.17h-7.89
					c-1.22,0.12-1.99,0-2.29-0.37c-0.31-0.37-0.34-1.1-0.09-2.2l1.65-9.54c0.24-1.83,1.41-2.75,3.48-2.75h23.29
					c1.22,0,1.99,0.18,2.29,0.55c0.3,0.37,0.34,1.1,0.09,2.2l-2.57,15.04c7.7-13.2,17.91-19.81,30.63-19.81
					c8.07,0,12.1,1.16,12.1,3.48c0,0.37-0.06,0.8-0.18,1.28l-4.22,24.21c-0.25,1.83-1.41,2.75-3.48,2.75h-10.45
					c-1.22,0-1.99-0.18-2.29-0.55c-0.31-0.37-0.34-1.1-0.09-2.2l1.65-9.72c-1.71-0.24-2.94-0.37-3.67-0.37
					c-11.86,0-19.26,8.32-22.19,24.94l-8.07,46.22c-0.12,1.1-0.43,1.83-0.92,2.2c-0.49,0.37-1.35,0.55-2.57,0.55H1477.49z"/>
			</g>
			<g>
				<path class="st0" d="M1646.76,182.42c1.71,0,2.57,0.49,2.57,1.47c0,0.37-0.06,0.8-0.18,1.28l-12.84,72.81
					c-1.47,9.9-3.18,18.58-5.14,26.04c-2.81,10.76-7.73,18.98-14.76,24.67c-7.03,5.69-16.48,8.53-28.33,8.53
					c-11.86,0-22.31-2.2-31.36-6.6c-1.22-0.49-1.83-1.1-1.83-1.83s0.12-1.41,0.37-2.02l3.85-8.62c0.49-1.1,0.98-1.74,1.47-1.92
					c0.49-0.18,1.22-0.03,2.2,0.46c7.58,3.42,15.22,5.13,22.92,5.13c15.04,0,23.96-8.07,26.77-24.21l2.94-16.14
					c-8.44,9.29-18.52,13.94-30.26,13.94c-7.95,0-14.03-1.92-18.25-5.78c-4.22-3.85-6.33-9.5-6.33-16.96c0-2.81,0.24-5.62,0.73-8.44
					l8.44-47.32l-7.7,0.18c-1.22,0.12-1.99,0-2.29-0.37c-0.31-0.37-0.34-1.1-0.09-2.2l1.47-9.35c0.24-1.1,0.58-1.83,1.01-2.2
					c0.43-0.37,1.25-0.55,2.48-0.55h25.31c1.22,0,1.99,0.18,2.29,0.55c0.31,0.37,0.34,1.1,0.09,2.2l-8.99,51.17
					c-0.86,4.52-1.28,8.38-1.28,11.55c0,7.09,4.34,10.64,13.02,10.64c5.62,0,10.79-1.83,15.5-5.5c4.71-3.67,7.49-7.82,8.35-12.47
					l9.72-55.39c0.12-1.1,0.43-1.83,0.92-2.2c0.49-0.37,1.34-0.55,2.57-0.55H1646.76z"/>
			</g>
		</g>
		<g>
			<path class="st0" d="M1648.91,312.96c32.02-3.5,60.95-14.64,87.25-32.73c0.65-0.45,1.03-1.3,1.55-1.98
				c-1.79,0.79-3.52,1.9-5.4,2.31c-1.89,0.41-3.93,0.11-5.9,0.13c0.34-1.89,0.06-4.32,1.15-5.56c2.77-3.18,5.89-6.24,9.41-8.51
				c1.47-0.95,4.83-0.53,6.41,0.58c2.85,2.01,2.2,4.21-0.97,6.12c-1.96,1.18-3.27,3.43-4.87,5.2c11.02-8.98,22.92-17.08,32.89-27.1
				c31.86-32,52.84-70.89,68.77-112.74c0.61-1.61,0.81-3.39,1.32-5.58c-42.56-0.74-79.71-16.03-114.91-40.54
				c0.23,4.27,0.32,7.72,0.61,11.16c4.51,53.41,0.23,105.4-25.97,153.54c-11.7,21.5-27.68,39.3-48.96,51.94
				c-0.72,0.43-1.3,1.18-1.78,1.89C1649.18,311.6,1649.12,312.28,1648.91,312.96z M1736.05,175.35c13.46,4.75,15.53,12.6,7.51,25.47
				c-2.37-1.21-4.9-2.2-7.07-3.72c-1.44-1.01-3.43-2.87-3.31-4.17C1733.73,187.25,1734.96,181.65,1736.05,175.35z M1737.73,147.53
				c4.78,2.37,8.57,4.12,12.21,6.16c0.97,0.55,2.12,2.05,2.04,3.02c-0.52,6.07-1.37,12.11-2.38,20.35
				c-5.41-4.01-11.61-6.24-12.63-9.91C1735.35,161.39,1737.25,154.67,1737.73,147.53z M1752.3,149.39
				c-4.37-2.29-7.48-3.61-10.23-5.46c-1.86-1.25-4.38-3.12-4.59-4.95c-0.75-6.36-0.63-12.82-0.83-19.24
				c0.56-0.55,1.13-1.1,1.69-1.65c4.63,3.15,11.69,5.39,13.31,9.68C1753.95,133.89,1752.27,141.51,1752.3,149.39z M1813.28,176.19
				c-3.59-3.9-6.27-6.48-8.54-9.39c-1.38-1.77-3.34-4.34-2.93-6.04c1.71-7.02,4.22-13.84,6.9-22.16c3.45,3.58,5.93,5.78,7.93,8.35
				c1.69,2.17,4.4,5.14,3.94,7.11C1818.89,161.23,1816.06,168.12,1813.28,176.19z M1793.85,194.91c-1.42-1.96-3.46-4.85-2.91-6.61
				c1.95-6.26,4.88-12.22,7.47-18.35c13.75,7.67,14.15,19.01,1.38,31.08C1797.79,199.01,1795.51,197.19,1793.85,194.91z
				 M1778.43,213.61c1.07-5.76,5.31-10.93,9.35-18.46c3.79,5.22,9.55,9.75,8.89,12.95c-1.28,6.2-6.18,11.64-9.57,17.4
				c-0.97-0.03-1.94-0.06-2.91-0.09C1782.1,221.45,1777.79,217.07,1778.43,213.61z M1761.48,239.2c3.03-4.53,5.72-9.12,9.03-13.2
				c1.23-1.52,3.91-1.86,5.94-2.74c1.34,3.51,8.38,4.65,4.72,10.1c-3.25,4.84-7.24,9.2-11.29,14.24
				C1766.7,244.42,1764.24,241.95,1761.48,239.2z M1746.93,256.33c3.5-4.19,7.19-8.22,11.03-12.58c3.1,3.23,9.44,4.95,5.86,10.37
				c-3.18,4.82-8.37,8.31-13.06,12.75C1747.99,263.35,1742.42,261.72,1746.93,256.33z M1727.67,217.01
				c1.61-4.99,2.7-10.14,4.14-15.65c12.31,3.97,12.38,4.13,8.43,14.81c-0.54,1.46-0.59,3.31-1.55,4.34
				c-1.36,1.45-3.35,2.3-5.07,3.41C1732.01,221.32,1725.77,222.9,1727.67,217.01z M1720.67,237.31c1.11-2.65,1.7-5.63,3.33-7.89
				c0.98-1.37,3.84-2.64,5.25-2.17c2.53,0.85,6.65,1.68,4.19,6.38c-2.36,4.5-4.52,9.12-6.7,13.57
				C1718.17,244.91,1717.78,244.19,1720.67,237.31z M1715.19,264.87c-2.33,3.96-4.71,4.17-8.08,0.39c2.44-4.67,4.68-9.72,7.72-14.24
				c0.72-1.06,4.22-0.68,6.23-0.17c0.57,0.14,1.14,3.48,0.48,4.69C1719.76,258.83,1717.1,261.63,1715.19,264.87z M1702.2,292.94
				c5.47-3.53,10.86-7.22,16.52-10.42c0.9-0.51,3.04,1.15,6.61,2.65c-8.4,4.2-14.81,7.41-21.23,10.61
				C1703.46,294.83,1702.83,293.88,1702.2,292.94z M1692.4,285.55c3.7-4.95,7.35-9.94,11.2-14.78c0.27-0.34,2.47,0.14,2.88,0.8
				c0.56,0.9,0.83,2.85,0.26,3.45c-3.98,4.21-8.2,8.19-12.34,12.24C1693.73,286.69,1693.07,286.12,1692.4,285.55z"/>
		</g>
	</g>
</g>
</svg>
